<svg version="1" xmlns="http://www.w3.org/2000/svg" width="933.333" height="933.333" viewBox="0 0 700.000000 700.000000"><path d="M137 1.5C90 5.1 53 13.2 14 28.2.9 33.3 0 33.9 1.9 36.8c.6 1.1 3 .9 12.7-.7 35.3-6 68.5-8.6 99.7-7.8 54.6 1.5 87.6 5.9 136.8 18.2 77.2 19.4 153.5 58.9 218.9 113.4 77.9 65 138.5 153.8 172.4 252.9 8.8 25.6 20.3 76.4 24 106.2 3.8 29.7 5.5 78.6 3.7 104.5-1.3 18.9-4.1 43.1-7.1 60.4-1.1 6.3-1.7 11.8-1.4 12.2.3.5 1.4.9 2.4.9 4.3 0 19.2-45.6 25.9-79.5 4.1-20.7 5.9-35.8 7.8-65.5 1.8-29.9.9-57-3.2-88-5.6-43.3-13-74.7-26.5-111.3-15.3-41.8-39-88.2-61.3-119.9-25-35.6-55.4-70.6-80.9-93-36.6-32.2-66-53.8-97.8-71.6C348.8 24 268.1 1.8 181 .5c-17-.3-32.8.1-44 1z"/><path d="M148 143.7c-35.7 2.8-72.1 11.8-102.5 25.4C25.1 178.2 0 193.6 0 197c0 3.2 2.8 3.9 9.4 2.3 10.5-2.4 33.5-6.2 49.1-8 20.6-2.3 65.3-2.3 85.5.1 71 8.3 127.2 28.4 182 64.9 45.2 30.1 82.6 66.9 113.2 111.3 32.1 46.7 52.4 96 63.2 153.4 10.4 55 9.4 115.7-2.8 168-1.5 6.5-1.3 8.5 1 9.4 2.5 1 3.8-.3 10.6-10.7 17.4-26.9 31.3-61.7 38.3-96.4 4.8-23.8 5.9-36 5.9-65.3.1-29.4-1.1-43.3-6-70-16.1-88.3-68.6-174.1-141.1-230.7-61.5-47.9-129.1-74.6-205.8-81.2-11.1-1-44-1.2-54.5-.4z"/><path d="M130.5 298.6c-41.4 5.8-79 23.3-105 48.9C11.8 361-.8 378.8.5 382.9c1 3.4 3.6 3.3 14.9-.8 63.5-22.9 131.9-18.9 189.9 11.1 23.4 12.1 44.5 28.1 63.5 48.3 32.8 34.7 53.6 78 60.9 126.5 2 13.9 2.3 49.1.4 62-2.9 20.4-7.5 38.9-13.8 55.7-2.7 7.4-3.2 9.6-2.3 11.3 1.7 3.2 4.7 2.4 13.4-3.4 38-25.4 63.1-67.3 72.1-120.6 2.3-13.3 3-41.1 1.6-55.1-3.3-30.8-11.2-57.6-25.7-86-35.2-69.2-98.7-116.9-175.3-131.5-11.6-2.3-16.9-2.7-36.1-3-16.3-.2-25.5.1-33.5 1.2z"/><path d="M89.3 483.5c-41.2 7.5-75 38.9-86 80.2C1 572.5.7 575.3.7 590.5c0 15.2.2 18 2.6 27 16 59.8 77.6 94.5 136.7 76.9 16.4-4.9 30.5-13.2 43.7-25.7 15.8-15 26.9-35.1 31.4-56.9 2.8-13.6 2.3-34.9-1.1-47.8-5.5-20.8-13.8-34.9-29.5-50.5-16.3-16.2-32.5-25-55-29.6-10.6-2.2-29.3-2.4-40.2-.4z"/></svg>